<svg width="250" height="36" viewBox="0 0 250 36" fill="none" xmlns="http://www.w3.org/2000/svg">
<path d="M21.6923 1.4165C22.8308 1.4165 23.7077 1.73958 24.3231 2.38574C24.9692 3.00112 25.2923 3.84727 25.2923 4.9242C25.2923 7.3242 23.8615 9.55497 21 11.6165C18.1385 13.6473 14.8769 14.6627 11.2154 14.6627C9.61539 14.6627 7.92308 14.4319 6.13846 13.9704C4.96923 15.878 4.38461 17.955 4.38461 20.2011C4.38461 22.4165 5 24.2165 6.23077 25.6011C7.46154 26.955 9.26154 27.6319 11.6308 27.6319C15.8769 27.6319 18.6615 25.155 19.9846 20.2011H22.1538C21.8154 23.0627 20.4615 25.5857 18.0923 27.7703C15.7538 29.955 12.6615 31.0473 8.81538 31.0473C6.78462 31.0473 4.89231 30.3088 3.13846 28.8319C1.38462 27.3242 0.507692 25.155 0.507692 22.3242C0.507692 19.4934 1.58462 16.4011 3.73846 13.0473C2.16923 12.1242 0.923077 10.9857 0 9.63189L1.24615 8.24727C1.46154 8.46266 1.75385 8.78574 2.12308 9.2165C2.83077 10.0473 3.78462 10.7704 4.98462 11.3857C6.8 8.86266 9.43077 6.57035 12.8769 4.50881C16.3538 2.44727 19.2923 1.4165 21.6923 1.4165ZM11.0769 12.8165C13.7538 12.8165 16.1077 12.1857 18.1385 10.9242C20.1692 9.66266 21.1846 8.18574 21.1846 6.49343C21.1846 5.90881 20.9692 5.44727 20.5385 5.10881C20.1385 4.73958 19.6154 4.55497 18.9692 4.55497C17.0923 4.55497 15 5.30881 12.6923 6.8165C10.3846 8.29343 8.55385 10.078 7.2 12.1704C8.30769 12.6011 9.6 12.8165 11.0769 12.8165Z" fill="#F2CE1B"/>
<path d="M45.6645 25.5088L46.6338 26.2934C46.1107 27.5857 45.2799 28.678 44.1415 29.5704C43.0338 30.4627 42.0184 30.9088 41.0953 30.9088C40.203 30.9088 39.4953 30.6011 38.9722 29.9857C38.4492 29.3396 38.1876 28.5088 38.1876 27.4934C38.1876 26.478 38.3569 25.1704 38.6953 23.5704C37.2492 25.8473 35.6953 27.6319 34.0338 28.9242C32.3722 30.2165 30.9722 30.8627 29.8338 30.8627C28.1107 30.8627 27.2492 29.6319 27.2492 27.1703C27.2492 25.078 27.9569 22.4011 29.3722 19.1396C30.7876 15.878 31.8184 13.9857 32.4645 13.4627L34.6799 14.4319C33.4184 16.4627 32.4645 18.4627 31.8184 20.4319C31.1722 22.4011 30.8492 23.7242 30.8492 24.4011C30.8492 25.0473 31.0492 25.5704 31.4492 25.9704C31.8799 26.3704 32.3722 26.5704 32.9261 26.5704C34.1569 26.5704 35.6799 25.4473 37.4953 23.2011C39.3415 20.9242 41.2184 17.5396 43.1261 13.0473L45.4799 14.1088C45.4184 14.355 44.7107 16.1396 43.3569 19.4627C42.0338 22.7857 41.3722 24.7857 41.3722 25.4627C41.3722 26.1088 41.5107 26.6011 41.7876 26.9396C42.0953 27.278 42.3876 27.4473 42.6645 27.4473C42.9722 27.4473 43.203 27.4319 43.3569 27.4011C43.5107 27.3704 43.6645 27.3088 43.8184 27.2165C43.9722 27.1242 44.0953 27.0473 44.1876 26.9857C44.3107 26.9242 44.4492 26.8165 44.603 26.6627L44.9722 26.3396C45.0338 26.2473 45.1415 26.1088 45.2953 25.9242C45.4799 25.7088 45.603 25.5704 45.6645 25.5088Z" fill="#F2CE1B"/>
<path d="M62.5767 12.5396L62.1613 14.3396C61.6382 14.278 60.9613 14.2473 60.1305 14.2473C57.0536 14.2473 55.5151 15.2627 55.5151 17.2934C55.5151 17.7242 56.1305 18.9857 57.3613 21.078C58.6228 23.1704 59.2536 24.5704 59.2536 25.278C59.2536 26.9396 58.6844 28.2473 57.5459 29.2011C56.4382 30.1242 54.9459 30.5857 53.069 30.5857C50.4844 30.5857 48.4075 29.155 46.8382 26.2934L48.5921 25.0473C49.0228 25.3857 49.4844 25.8011 49.9767 26.2934C50.469 26.755 50.8382 27.078 51.0844 27.2627C51.669 27.7857 52.3151 28.0473 53.0228 28.0473C53.7305 28.0473 54.3459 27.8011 54.869 27.3088C55.3921 26.7857 55.6536 26.155 55.6536 25.4165C55.6536 24.6473 54.9767 23.2319 53.6228 21.1703C52.2998 19.1088 51.6382 17.6627 51.6382 16.8319C51.6382 15.3242 52.269 14.1704 53.5305 13.3704C54.8228 12.5704 56.4998 12.1704 58.5613 12.1704C60.6536 12.1704 61.9921 12.2934 62.5767 12.5396Z" fill="#F2CE1B"/>
<path d="M73.5638 25.4165L74.5792 26.5704C73.81 27.7704 72.8715 28.7088 71.7638 29.3857C70.6869 30.0627 69.5946 30.4011 68.4869 30.4011C67.3792 30.4011 66.5023 30.0934 65.8561 29.478C65.21 28.8319 64.8869 27.955 64.8869 26.8473C64.8869 24.2627 65.8561 20.6934 67.7946 16.1396C66.2254 16.3857 64.6561 16.755 63.0869 17.2473L62.7638 15.4473L62.7177 15.4011C64.2561 14.755 66.2715 14.2319 68.7638 13.8319C69.01 13.3704 69.5638 12.2473 70.4254 10.4627C72.1484 6.9242 73.3792 4.63189 74.1177 3.58574L76.1023 4.37035C75.7946 5.04727 75.2561 6.18574 74.4869 7.78574C73.7177 9.35497 72.8561 11.1396 71.9023 13.1396C73.2869 13.0473 74.3792 13.0011 75.1792 13.0011C75.9792 13.0011 76.5946 13.1242 77.0254 13.3704V15.355C76.5946 15.2627 75.9638 15.2165 75.1331 15.2165C74.3331 15.2165 72.8869 15.355 70.7946 15.6319C68.9792 19.6934 68.0715 22.6473 68.0715 24.4934C68.0715 25.2011 68.2869 25.7857 68.7177 26.2473C69.1792 26.7088 69.7792 26.9396 70.5177 26.9396C71.2869 26.9396 72.3023 26.4319 73.5638 25.4165Z" fill="#F2CE1B"/>
<path d="M91.152 16.878C91.952 18.2011 92.3521 19.6627 92.3521 21.2627C92.3521 23.755 91.4905 25.9857 89.7674 27.955C88.0443 29.8934 86.0136 30.8627 83.6751 30.8627C81.8905 30.8627 80.4905 30.355 79.4751 29.3396C78.4905 28.2934 77.9982 26.8627 77.9982 25.0473C77.9982 22.1242 79.1367 19.5088 81.4136 17.2011C83.6905 14.8627 86.2444 13.6934 89.0751 13.6934C89.5982 13.6934 89.9674 13.7088 90.1828 13.7396L90.3213 15.2627C87.8597 15.2627 85.8136 15.9704 84.1828 17.3857C82.552 18.8011 81.7367 20.6165 81.7367 22.8319C81.7367 24.155 82.0597 25.2319 82.7059 26.0627C83.3521 26.8627 84.2905 27.2627 85.5213 27.2627C86.7828 27.2627 87.7828 26.7088 88.5213 25.6011C89.2597 24.4934 89.629 23.2011 89.629 21.7242C89.629 20.2165 89.3367 18.8473 88.752 17.6165L91.152 16.878Z" fill="#F2CE1B"/>
<path d="M124.524 24.5857L125.493 25.5088C123.739 28.6473 121.724 30.2165 119.447 30.2165C118.524 30.2165 117.801 29.9704 117.278 29.478C116.785 28.955 116.539 28.278 116.539 27.4473C116.539 26.5857 117.047 25.1242 118.062 23.0627C119.078 21.0011 119.616 19.4319 119.678 18.355C119.708 17.8627 119.555 17.4627 119.216 17.155C118.908 16.8473 118.478 16.6934 117.924 16.6934C117.37 16.6934 116.801 16.8319 116.216 17.1088C115.662 17.355 115.108 17.7704 114.555 18.355C114.031 18.9396 113.539 19.5088 113.078 20.0627C112.647 20.6165 112.155 21.4011 111.601 22.4165C111.078 23.4319 110.631 24.278 110.262 24.955C109.616 26.2165 108.693 28.1088 107.493 30.6319L104.724 29.6627C104.724 29.5703 105.231 27.8319 106.247 24.4473C107.262 21.0627 107.77 19.0473 107.77 18.4011C107.77 17.755 107.616 17.2934 107.308 17.0165C107.001 16.7088 106.616 16.555 106.155 16.555C104.77 16.555 102.847 18.278 100.385 21.7242C97.9546 25.1703 96.4007 28.1088 95.7238 30.5396L93.093 29.6627C93.2469 28.0319 93.97 25.1088 95.2623 20.8934C96.5546 16.6473 97.6469 13.755 98.5392 12.2165L100.616 12.955C99.6623 15.078 99.0007 16.878 98.6315 18.355C98.2623 19.8011 97.9392 21.355 97.6623 23.0165C100.308 19.2319 102.524 16.5857 104.308 15.078C106.093 13.5396 107.708 12.7704 109.155 12.7704C110.724 12.7704 111.508 13.555 111.508 15.1242C111.508 15.7396 111.231 16.955 110.678 18.7704C110.155 20.5857 109.739 22.0165 109.431 23.0627C113.678 16.2319 117.478 12.8165 120.831 12.8165C121.662 12.8165 122.324 13.078 122.816 13.6011C123.308 14.0934 123.555 14.8473 123.555 15.8627C123.555 16.8473 122.97 18.4934 121.801 20.8011C120.662 23.1088 120.093 24.5704 120.093 25.1857C120.093 25.7704 120.216 26.2011 120.462 26.478C120.708 26.755 121.016 26.8934 121.385 26.8934C122.185 26.8934 123.231 26.1242 124.524 24.5857Z" fill="#F2CE1B"/>
<path d="M136.001 11.0165C134.278 11.0165 133.417 10.3242 133.417 8.93958C133.417 8.17035 133.632 7.5242 134.063 7.00112C134.494 6.47804 135.047 6.21651 135.724 6.21651C136.401 6.21651 136.955 6.4165 137.386 6.8165C137.817 7.2165 138.032 7.73958 138.032 8.38574C138.032 9.03189 137.847 9.63189 137.478 10.1857C137.109 10.7396 136.617 11.0165 136.001 11.0165ZM135.401 24.6319L136.324 25.4165C135.586 26.8319 134.601 28.0473 133.371 29.0627C132.171 30.0473 131.078 30.5396 130.094 30.5396C128.371 30.5396 127.509 29.3396 127.509 26.9396C127.509 23.955 128.74 20.0627 131.201 15.2627C131.755 14.2165 132.078 13.6011 132.171 13.4165L134.155 14.6165C133.509 15.7857 132.709 17.6473 131.755 20.2011C130.832 22.755 130.371 24.4011 130.371 25.1396C130.371 25.8473 130.524 26.355 130.832 26.6627C131.14 26.9704 131.509 27.1242 131.94 27.1242C132.771 27.1242 133.924 26.2934 135.401 24.6319Z" fill="#F2CE1B"/>
<path d="M154.859 27.1703L154.813 29.1088C154.105 29.1396 153.136 29.1703 151.905 29.2011C150.674 29.2319 149.813 29.2627 149.32 29.2934C148.859 29.2934 148.213 29.3242 147.382 29.3857C145.966 29.478 144.659 29.6627 143.459 29.9396C141.951 30.278 141.136 30.4473 141.013 30.4473C140.428 30.4473 139.828 30.0934 139.213 29.3857C138.628 28.678 138.336 27.9857 138.336 27.3088C138.336 26.0165 142.951 22.1242 152.182 15.6319C151.782 15.6011 150.859 15.5857 149.413 15.5857C147.997 15.5857 145.52 15.8934 141.982 16.5088L141.705 14.9396C143.797 13.678 147.705 13.0473 153.428 13.0473C154.628 13.0473 155.474 13.1396 155.966 13.3242C156.49 13.5088 156.751 13.9242 156.751 14.5704C156.751 15.278 156.351 15.9242 155.551 16.5088C155.397 16.6319 155.136 16.8011 154.766 17.0165C154.428 17.2319 153.797 17.6627 152.874 18.3088C151.951 18.955 151.013 19.6319 150.059 20.3396C149.136 21.0165 147.951 22.0473 146.505 23.4319C145.059 24.8165 143.674 26.3396 142.351 28.0011C146.597 27.3242 149.459 26.9857 150.936 26.9857C152.443 26.9857 153.751 27.0473 154.859 27.1703Z" fill="#F2CE1B"/>
<path d="M171.195 25.1396L172.256 25.9704C171.302 27.2934 169.995 28.4011 168.333 29.2934C166.672 30.155 165.056 30.5857 163.487 30.5857C161.918 30.5857 160.656 30.1242 159.702 29.2011C158.749 28.278 158.272 27.0627 158.272 25.555C158.272 22.7242 159.764 19.9396 162.749 17.2011C165.764 14.4627 168.81 13.0934 171.887 13.0934C173.918 13.0934 174.933 13.8934 174.933 15.4934C174.933 17.155 173.856 18.8319 171.702 20.5242C169.579 22.2165 166.579 23.755 162.702 25.1396C162.979 25.8473 163.41 26.4011 163.995 26.8011C164.579 27.2011 165.179 27.4011 165.795 27.4011C167.118 27.4011 168.918 26.6473 171.195 25.1396ZM162.472 23.755C164.964 22.8934 167.102 21.8165 168.887 20.5242C170.672 19.2319 171.564 18.0473 171.564 16.9704C171.564 16.5704 171.41 16.2165 171.102 15.9088C170.795 15.6011 170.441 15.4473 170.041 15.4473C168.595 15.4473 167.025 16.355 165.333 18.1704C163.672 19.955 162.718 21.8165 162.472 23.755Z" fill="#F2CE1B"/>
<path d="M212.961 34.2L212.407 35.9077C211.607 35.9692 211.007 36 210.607 36C208.761 36 207.254 35.2154 206.084 33.6462C204.946 32.1077 204.377 30.0923 204.377 27.6C204.377 26.0923 204.715 23.2462 205.392 19.0615C206.1 14.8462 206.915 11 207.838 7.52308C208.023 6.75385 208.115 6.24615 208.115 6C208.115 5.75385 208.007 5.63077 207.792 5.63077C207.577 5.63077 206.884 6.78462 205.715 9.09231C204.577 11.3692 203.207 14.1846 201.607 17.5385C200.007 20.8615 199.084 22.7692 198.838 23.2615C198.623 23.7231 198.438 24.1077 198.284 24.4154C198.161 24.6923 197.884 25.2154 197.454 25.9846C197.054 26.7231 196.669 27.3846 196.3 27.9692C195.284 29.5077 194.484 30.2769 193.9 30.2769C193.5 30.2769 193.054 30.1692 192.561 29.9538C192.1 29.7385 191.792 29.5077 191.638 29.2615C191.3 28.7385 191.13 27.1077 191.13 24.3692C191.13 18.6462 191.592 13.1846 192.515 7.98462C192.823 6.26154 192.977 5.35385 192.977 5.26154C192.977 4.95385 192.854 4.8 192.607 4.8C192.115 4.8 191.33 6.33846 190.254 9.41539L188.915 13.2462C186.946 18.8154 184.946 23.1538 182.915 26.2615C180.915 29.3692 178.607 31.5538 175.992 32.8154L174.792 30.2769C177.777 28.0615 180.069 25.8 181.669 23.4923C183.3 21.1846 185.069 17.4615 186.977 12.3231L188.546 8.12308C189.623 5.2 190.561 3.12308 191.361 1.89231C192.161 0.63077 193.054 0 194.038 0C195.669 0 196.484 0.984616 196.484 2.95385C196.484 3.10769 196.192 6.23077 195.607 12.3231C195.023 18.3846 194.73 22.3846 194.73 24.3231C194.73 24.8769 194.823 25.1692 195.007 25.2C195.161 25.2 195.33 25.0462 195.515 24.7385C198.007 20.5846 200.392 16.0615 202.669 11.1692C202.946 10.5538 203.423 9.49231 204.1 7.98462C204.777 6.47692 205.438 5.13846 206.084 3.96923C206.73 2.8 207.223 2.09231 207.561 1.84615C207.9 1.56923 208.438 1.43077 209.177 1.43077C209.915 1.43077 210.546 1.70769 211.069 2.26154C211.623 2.78461 211.9 3.41538 211.9 4.15385C211.9 4.89231 211.792 5.73846 211.577 6.69231C209.177 18.4154 207.977 25.4308 207.977 27.7385C207.977 30.0154 208.346 31.5692 209.084 32.4C209.823 33.2615 211.115 33.8615 212.961 34.2Z" fill="white"/>
<path d="M225.868 24L226.929 24.8308C225.975 26.1538 224.668 27.2615 223.006 28.1538C221.345 29.0154 219.729 29.4462 218.16 29.4462C216.591 29.4462 215.329 28.9846 214.375 28.0615C213.422 27.1385 212.945 25.9231 212.945 24.4154C212.945 21.5846 214.437 18.8 217.422 16.0615C220.437 13.3231 223.483 11.9538 226.56 11.9538C228.591 11.9538 229.606 12.7538 229.606 14.3538C229.606 16.0154 228.529 17.6923 226.375 19.3846C224.252 21.0769 221.252 22.6154 217.375 24C217.652 24.7077 218.083 25.2615 218.668 25.6615C219.252 26.0615 219.852 26.2615 220.468 26.2615C221.791 26.2615 223.591 25.5077 225.868 24ZM217.145 22.6154C219.637 21.7538 221.775 20.6769 223.56 19.3846C225.345 18.0923 226.237 16.9077 226.237 15.8308C226.237 15.4308 226.083 15.0769 225.775 14.7692C225.468 14.4615 225.114 14.3077 224.714 14.3077C223.268 14.3077 221.699 15.2154 220.006 17.0308C218.345 18.8154 217.391 20.6769 217.145 22.6154Z" fill="white"/>
<path d="M227.105 7.94C227.105 8.93949 227.911 9.74979 228.905 9.74979C229.899 9.74979 230.704 8.93949 230.704 7.94H227.105ZM238.501 4.37195L237.195 5.61622C237.535 5.97721 238.007 6.18184 238.501 6.18184C238.996 6.18184 239.468 5.97721 239.808 5.61622L238.501 4.37195ZM234.401 14.267C233.639 13.6257 232.504 13.7272 231.866 14.4939C231.229 15.2605 231.329 16.4019 232.092 17.0433L234.401 14.267ZM230.704 7.94C230.704 6.2149 231.656 4.84211 232.842 4.2877C233.906 3.7903 235.493 3.80845 237.195 5.61622L239.808 3.12762C237.191 0.348138 233.98 -0.235414 231.325 1.00517C228.793 2.18885 227.105 4.8935 227.105 7.94H230.704ZM234.461 18.9424C234.942 19.3304 235.528 19.8019 236.138 20.1667C236.748 20.5309 237.557 20.8991 238.501 20.8991V17.2795C238.486 17.2795 238.336 17.2696 237.976 17.0549C237.618 16.8408 237.226 16.5329 236.711 16.1179L234.461 18.9424ZM242.542 18.9424C243.848 17.8898 245.717 16.5368 247.172 14.8616C248.688 13.1158 249.897 10.8808 249.897 7.94H246.299C246.299 9.77079 245.579 11.1928 244.461 12.4802C243.282 13.8382 241.81 14.8944 240.292 16.1179L242.542 18.9424ZM249.897 7.94C249.897 4.8935 248.21 2.18885 245.677 1.00517C243.023 -0.235414 239.811 0.348138 237.195 3.12762L239.808 5.61622C241.51 3.80845 243.097 3.7903 244.161 4.2877C245.347 4.84211 246.299 6.2149 246.299 7.94H249.897ZM240.292 16.1179C239.777 16.5329 239.385 16.8408 239.027 17.0549C238.667 17.2696 238.517 17.2795 238.501 17.2795V20.8991C239.445 20.8991 240.255 20.5309 240.864 20.1667C241.475 19.8019 242.061 19.3304 242.542 18.9424L240.292 16.1179ZM236.711 16.1179C235.909 15.4714 235.182 14.9241 234.401 14.267L232.092 17.0433C232.895 17.7194 233.786 18.3987 234.461 18.9424L236.711 16.1179Z" fill="#F2CE1B"/>
</svg>
